# xmcd
#
# Track frame offsets:
#	150
#	25827
#	43880
#	69105
#	91492
#	109862
#	134142
#	152785
#	177470
#	199595
#
# Disc length: 2835 seconds
#
# Revision: 2
# Processed by: cddbd v1.4PL0 Copyright (c) Steve Scherf et al.
# Submitted via: audiograbber 1.80
#
DISCID=8b0b110a
DTITLE=Various  - Rhythm and Blues - Volume 1
DYEAR=1900
DGENRE=
TTITLE0=Regina Belle - Baby Come To Me
TTITLE1=Marvin Gaye - Sexual Healing
TTITLE2=Isley Brothers - That Lady
TTITLE3=Vaughn Brothers - Tick Tock
TTITLE4=Basia - Promises
TTITLE5=Luther Vandross - Here and Now
TTITLE6=Will To Power - Baby I Love Your Way - Freebird Medley
TTITLE7=The Weather Girls - It's Raining Man
TTITLE8=Surface - Shower Me With Your Love
TTITLE9=Johnny Mathis and Deniece Williams - Too Much, Too Little, Too Late
EXTD=
EXTT0=Regina Belle
EXTT1=Marvin Gaye
EXTT2=Isley Brothers
EXTT3=Vaughan Brothers
EXTT4=Basia
EXTT5=Luther Vandross
EXTT6=Will To Power
EXTT7=The Weather Girls
EXTT8=Surface
EXTT9=Johnny Mathis and Deniece Williams
PLAYORDER=
